<svg width="36" height="36" viewBox="0 0 36 36" fill="none" xmlns="http://www.w3.org/2000/svg">
<path d="M35.9846 35.909V28.909C35.9846 25.594 32.2996 23.409 28.9846 23.409H16.9846C13.6716 23.409 9.98462 25.594 9.98462 28.909V35.909H35.9846Z" fill="#8431F1"/>
<path d="M22.9287 1.478C27.0347 1.478 33.8767 3.531 33.8767 12.426C33.8767 21.321 33.8767 23.374 31.8237 23.374C29.7697 23.374 27.0337 21.321 22.9277 21.321C18.8227 21.321 16.1437 23.374 14.0327 23.374C11.7457 23.374 11.9797 15.163 11.9797 12.426C11.9817 3.531 18.8237 1.478 22.9287 1.478" fill="#292F33"/>
<path d="M19.3126 23.429C19.3126 24.909 21.4846 25.409 22.9846 25.409C24.4846 25.409 26.6446 24.909 26.6446 23.429V20.224H19.3126V23.429V23.429Z" fill="#F7DECE"/>
<path d="M19.3055 21.588C20.3285 22.743 21.5965 23.056 22.9745 23.056C24.3535 23.056 25.6215 22.744 26.6445 21.588V18.652H19.3055V21.588V21.588Z" fill="#EEC2AD"/>
<path d="M14.7186 12.126C14.7186 6.292 18.3946 1.563 22.9286 1.563C27.4626 1.563 31.1396 6.292 31.1396 12.126C31.1396 17.959 27.4626 22.412 22.9286 22.412C18.3946 22.412 14.7186 17.96 14.7186 12.126" fill="#F7DECE"/>
<path d="M22.9286 19.952C21.3236 19.952 20.4827 19.158 20.3927 19.067C20.1247 18.8 20.1247 18.367 20.3927 18.1C20.6587 17.835 21.0846 17.833 21.3526 18.093C21.3876 18.125 21.9056 18.584 22.9286 18.584C23.9676 18.584 24.4856 18.111 24.5056 18.092C24.7786 17.836 25.2086 17.844 25.4686 18.112C25.7286 18.381 25.7286 18.803 25.4646 19.067C25.3756 19.158 24.5356 19.952 22.9286 19.952" fill="#DF1F32"/>
<path d="M12.7096 15.409C12.6886 14.409 12.6656 15.185 12.6656 14.944C12.6656 11.522 14.7186 15.438 14.7186 13.001C14.7186 10.562 16.0866 10.318 17.4546 8.95C18.1396 8.265 19.5076 6.924 19.5076 6.924C19.5076 6.924 22.9286 8.991 25.6656 8.991C28.4016 8.991 31.1396 10.366 31.1396 13.103C31.1396 15.84 33.1926 11.519 33.1926 14.94C33.1926 15.184 33.1706 14.409 33.1526 15.409H33.8706C33.8776 13.409 33.8776 13.485 33.8776 12.207C33.8776 3.312 27.0346 0 22.9296 0C18.8246 0 11.9826 3.257 11.9826 12.152C11.9826 12.945 11.9626 13.409 11.9906 15.409H12.7096V15.409Z" fill="#292F33"/>
<path d="M19.5926 14.295C19.1276 14.295 18.7466 13.914 18.7466 13.449V12.604C18.7466 12.139 19.1276 11.758 19.5926 11.758C20.0576 11.758 20.4396 12.139 20.4396 12.604V13.449C20.4396 13.914 20.0576 14.295 19.5926 14.295ZM26.3576 14.295C25.8926 14.295 25.5116 13.914 25.5116 13.449V12.604C25.5116 12.139 25.8926 11.758 26.3576 11.758C26.8226 11.758 27.2036 12.139 27.2036 12.604V13.449C27.2036 13.914 26.8226 14.295 26.3576 14.295Z" fill="#662113"/>
<path d="M23.8216 16.909H22.1306C21.8976 16.909 21.7076 16.719 21.7076 16.486V16.333C21.7076 16.1 21.8966 15.909 22.1306 15.909H23.8216C24.0536 15.909 24.2446 16.099 24.2446 16.333V16.486C24.2446 16.719 24.0536 16.909 23.8216 16.909Z" fill="#C1694F"/>
<path d="M16.4286 13.345C16.4286 14.793 15.6946 15.967 14.7896 15.967C13.8846 15.967 13.1506 14.793 13.1506 13.345C13.1506 11.897 13.8846 10.722 14.7896 10.722C15.6946 10.721 16.4286 11.896 16.4286 13.345ZM32.8176 13.345C32.8176 14.793 32.0846 15.967 31.1786 15.967C30.2736 15.967 29.5396 14.793 29.5396 13.345C29.5396 11.897 30.2726 10.722 31.1786 10.722C32.0846 10.721 32.8176 11.896 32.8176 13.345Z" fill="#F7DECE"/>
<path d="M33.9846 34.909C33.9846 35.462 33.5376 35.909 32.9846 35.909H22.9846C22.4316 35.909 21.9846 35.462 21.9846 34.909C21.9846 34.356 22.4316 33.909 22.9846 33.909H32.9846C33.5376 33.909 33.9846 34.356 33.9846 34.909Z" fill="#E1E8ED"/>
<path d="M21.2246 21.909H4.7436C3.2196 21.909 1.2656 22.68 2.2656 25.44L5.3376 33.915C5.3386 33.915 5.7346 35.909 7.9846 35.909H27.9846L23.9846 24.669C23.5466 23.347 22.7496 21.909 21.2246 21.909V21.909Z" fill="#E1E8ED"/>
<path d="M20.2246 21.909H3.7436C2.2196 21.909 0.265602 22.68 1.2656 25.44L4.3376 33.915C4.3386 33.915 4.7346 35.909 6.9846 35.909H26.9846L22.9846 24.669C22.5466 23.347 21.7496 21.909 20.2246 21.909V21.909Z" fill="#99AAB5"/>
<path d="M15.0036 29.192C15.5276 30.764 15.1036 32.322 14.0546 32.671C13.0076 33.021 11.7326 32.03 11.2086 30.458C10.6846 28.886 11.1096 27.328 12.1576 26.979C13.2056 26.63 14.4806 27.62 15.0036 29.192ZM19.9846 24.659H3.98462C3.57062 24.659 3.23462 24.323 3.23462 23.909C3.23462 23.495 3.57062 23.159 3.98462 23.159H19.9846C20.3986 23.159 20.7346 23.495 20.7346 23.909C20.7346 24.323 20.3986 24.659 19.9846 24.659Z" fill="#E1E8ED"/>
</svg>
